<svg xmlns="http://www.w3.org/2000/svg" width="1000" height="1000" viewBox="0 0 1000 1000" version="1.1">
	<path d="M 0 191.708 L 0 383.416 3.372 386.958 C 6.593 390.342, 6.789 390.990, 7.777 401.500 C 8.345 407.550, 8.612 413.850, 8.369 415.500 C 7.560 421.008, 5.925 449.239, 5.040 473 C 4.182 496.022, 5.374 609.910, 7.018 662 C 7.443 675.475, 8.244 702.250, 8.797 721.500 C 9.350 740.750, 10.040 757.175, 10.330 758 C 10.620 758.825, 11.116 768.725, 11.432 780 C 11.747 791.275, 12.448 809.725, 12.988 821 C 14.780 858.404, 16.034 905.134, 16.020 934 C 16.012 949.675, 16.301 970.938, 16.661 981.250 L 17.316 1000 499.658 1000 L 982 1000 982 841.914 C 982 754.967, 981.571 675.205, 981.047 664.664 C 980.522 654.124, 979.594 629.975, 978.985 611 C 977.495 564.662, 976.223 530.962, 974.736 498.500 C 973.368 468.609, 973.179 423.078, 974.381 413 C 975.386 404.581, 976.611 401.505, 980.140 398.535 C 982.638 396.433, 983.425 396.252, 986.060 397.171 C 987.731 397.753, 990.314 399.816, 991.799 401.756 C 993.285 403.695, 995.664 406.639, 997.086 408.299 L 999.672 411.317 1000.336 389.997 C 1000.701 378.271, 1001 285.725, 1001 184.339 L 1001 0 500.500 0 L 0 0 0 191.708 M 0.490 192.500 C 0.490 298.100, 0.607 341.152, 0.750 288.170 C 0.893 235.189, 0.893 148.789, 0.750 96.170 C 0.607 43.552, 0.490 86.900, 0.490 192.500 M 483.500 67.647 C 475.523 68.572, 468.685 70.644, 460 74.769 C 444.020 82.358, 434.769 93.891, 430.538 111.500 C 429.613 115.350, 429.001 120.525, 429.178 123 C 429.454 126.860, 429.785 127.454, 431.500 127.174 C 449.555 124.229, 463.262 128.240, 474.022 139.617 C 481.527 147.552, 485.305 156.349, 485.818 167.081 C 486.697 185.461, 478.083 200.313, 461.823 208.451 C 452.289 213.223, 443.344 214.628, 435 212.664 C 431.425 211.823, 428.207 211.442, 427.849 211.817 C 427.491 212.193, 427.516 215.842, 427.904 219.926 C 428.437 225.535, 429.053 227.614, 430.423 228.426 C 431.421 229.017, 433.196 230.266, 434.369 231.201 C 436.402 232.824, 436.293 232.841, 432 231.559 C 429.525 230.820, 425.700 229.546, 423.500 228.728 C 421.300 227.909, 417.475 226.683, 415 226.003 C 412.525 225.323, 409.195 224.369, 407.601 223.883 C 403.642 222.677, 395.732 222.772, 392.315 224.067 C 378.290 229.380, 385.308 244.205, 406 252.977 C 409.025 254.259, 415.325 256.541, 420 258.048 C 432.109 261.951, 434.222 263.027, 432.902 264.618 C 432.160 265.512, 432.127 266.959, 432.795 269.211 C 433.331 271.020, 434.309 275.200, 434.966 278.500 C 435.624 281.800, 436.568 286.300, 437.064 288.500 C 437.560 290.700, 438.667 296.062, 439.525 300.415 C 440.383 304.768, 441.274 308.634, 441.504 309.007 C 441.734 309.379, 442.339 312.118, 442.848 315.092 C 449.114 351.706, 459.311 380.066, 469.902 390.331 C 472.431 392.782, 475.625 395.110, 477 395.504 C 479.195 396.133, 478.981 395.683, 475.250 391.822 C 472.913 389.403, 471 387.050, 471 386.593 C 471 385.792, 477.945 390.602, 479.035 392.158 C 480.079 393.649, 486.984 395.999, 490.218 395.965 C 494.221 395.921, 496.585 394.651, 501.979 389.649 C 507.341 384.676, 508.576 385.802, 503.482 391.018 C 500.537 394.034, 500.024 395, 501.367 395 C 504.348 395, 511.804 389.181, 515.850 383.696 C 523.656 373.116, 527.243 362.248, 532.004 334.750 C 534.353 321.188, 535.151 316.782, 537.573 304 C 538.980 296.575, 541.240 284.937, 542.594 278.137 C 544.324 269.457, 544.749 265.402, 544.021 264.526 C 543.238 263.582, 544.148 262.856, 547.743 261.552 C 572.046 252.739, 582.897 247.091, 591.823 238.608 C 597.270 233.433, 599.357 228.879, 597.825 225.516 C 594.703 218.662, 575.375 219.809, 557.725 227.896 C 553.999 229.603, 549.976 231, 548.786 231 L 546.623 231 548.811 228.961 C 550.617 227.279, 551.029 225.705, 551.167 219.961 C 551.258 216.132, 551.371 212.252, 551.417 211.338 C 551.490 209.882, 550.015 209.663, 539.500 209.574 C 527.955 209.476, 527.235 209.342, 520.500 206.041 C 512.507 202.122, 503.613 193.669, 500.315 186.856 C 496.244 178.447, 495.548 175.475, 495.548 166.500 C 495.548 161.436, 496.129 155.969, 496.877 154 C 502.723 138.606, 511.491 130.061, 527.636 124.025 C 531 122.767, 546.771 123.077, 550.864 124.482 C 553.207 125.286, 553.222 125.244, 552.545 119.896 C 548.948 91.458, 532.606 71.778, 509.438 67.984 C 503.824 67.065, 490.067 66.886, 483.500 67.647 M 530.369 126.493 C 520.305 128.681, 512.514 133.738, 506.152 142.212 C 490.354 163.251, 498.615 193.062, 523.398 204.444 C 542.446 213.192, 566.520 203.889, 576.303 184 C 579.319 177.869, 579.499 176.876, 579.475 166.500 C 579.453 156.497, 579.193 154.960, 576.604 149.548 C 572.942 141.892, 564.312 132.853, 557.676 129.721 C 553.056 127.541, 541.681 124.869, 537.918 125.079 C 537.138 125.123, 533.741 125.759, 530.369 126.493 M 435.320 129.099 C 415.992 132.325, 401.011 149.967, 401.011 169.500 C 401.011 189.693, 416.156 207.191, 436.074 210.010 C 452.825 212.381, 466.946 205.992, 476.981 191.500 C 483.317 182.351, 485.197 168.115, 481.538 157 C 479.976 152.254, 474.777 143.691, 471.521 140.500 C 469.030 138.060, 463.134 134.107, 459 132.107 C 455.401 130.366, 443.285 127.693, 441 128.137 C 440.725 128.190, 438.169 128.623, 435.320 129.099 M 534.344 162.453 C 534.724 163.443, 534.621 164.759, 534.115 165.377 C 533.609 165.995, 533.039 167.625, 532.848 169 C 532.508 171.445, 532.642 171.500, 538.985 171.500 C 544.366 171.500, 545.528 171.202, 545.808 169.750 C 546.018 168.667, 545.532 168, 544.535 168 C 543.375 168, 543.005 167.231, 543.212 165.250 C 543.467 162.816, 543.155 162.488, 540.500 162.394 C 538.850 162.336, 536.634 161.920, 535.576 161.471 C 533.992 160.797, 533.775 160.970, 534.344 162.453 M 433.209 167.883 C 431.952 173.320, 432.961 175.130, 436.143 173.143 C 437.644 172.205, 438.542 172.142, 439.318 172.918 C 440.765 174.365, 442.100 174.238, 444.495 172.429 C 446.204 171.137, 446.276 170.788, 444.995 169.993 C 444.173 169.482, 443.500 167.850, 443.500 166.367 C 443.500 163.856, 443.181 163.655, 438.888 163.468 L 434.276 163.266 433.209 167.883 M 573.738 234.596 C 572.647 235.686, 542.736 243.461, 533.500 245.055 C 503.851 250.172, 465.470 250.434, 442 245.681 C 430.510 243.354, 426.135 242.345, 416.733 239.853 C 404.788 236.688, 400.676 236.219, 406 238.631 C 430.285 249.632, 470.521 255.737, 501.684 253.148 C 530.125 250.786, 557.439 244.507, 576.093 236.043 C 580.400 234.089, 580.430 234.043, 577.417 234.022 C 575.721 234.010, 574.065 234.268, 573.738 234.596 M 488.750 424.798 C 486.876 425.026, 486 425.715, 486 426.959 C 486 427.964, 485.325 429.045, 484.500 429.362 C 482.568 430.103, 482.561 432.618, 484.489 433.357 C 485.634 433.797, 485.758 434.506, 485.027 436.429 C 484.117 438.823, 485.293 441.040, 486.718 439.616 C 487.039 439.294, 487.883 439.812, 488.593 440.766 C 489.674 442.220, 490.175 442.293, 491.691 441.221 C 492.686 440.517, 494.288 439.678, 495.250 439.354 C 497.191 438.703, 497.585 436.479, 495.940 435.463 C 495.266 435.047, 495.508 434.349, 496.603 433.549 C 498.419 432.220, 497.851 428.356, 496.007 429.496 C 495.436 429.849, 495 429.061, 495 427.676 C 495 425.026, 493.303 424.245, 488.750 424.798 M 472.134 429.803 C 470.833 430.005, 469.543 431.031, 469.268 432.085 C 468.992 433.138, 468.144 434, 467.383 434 C 465.620 434, 465.609 436.084, 467.362 438.480 C 468.111 439.504, 468.508 441.165, 468.245 442.171 C 467.893 443.518, 468.325 444, 469.883 444 C 471.067 444, 472 444.640, 472 445.452 C 472 446.622, 470.431 446.855, 463.915 446.652 C 456.392 446.418, 455.697 446.570, 453.915 448.835 C 452.862 450.174, 452 452.019, 452 452.935 C 452 453.851, 451.483 455.117, 450.850 455.750 C 450.210 456.390, 449.506 461.243, 449.262 466.700 C 448.799 477.043, 450.677 487.514, 453.352 489.500 C 454.370 490.256, 519.029 490.740, 529.629 490.071 C 530.977 489.986, 532.417 486.425, 534.049 479.146 C 535.384 473.189, 534.869 461.074, 533.090 456.602 C 531.979 453.810, 531.880 453.774, 530.394 455.602 C 529.546 456.646, 529.117 456.969, 529.442 456.319 C 530.315 454.573, 528.141 453.638, 526.456 455.036 C 525.242 456.044, 525 455.791, 525 453.506 C 525 451.117, 525.322 450.828, 527.524 451.249 C 530.754 451.867, 531.666 450.394, 529.521 448.023 C 528.072 446.422, 526.707 446.234, 519.423 446.627 C 512.306 447.012, 511 446.843, 511 445.541 C 511 444.667, 511.865 444, 513 444 C 515.253 444, 515.564 442.964, 513.833 441.233 C 512.943 440.343, 513.062 439.913, 514.333 439.426 C 516.458 438.610, 516.500 435.406, 514.396 434.599 C 513.459 434.239, 513.036 433.347, 513.380 432.453 C 514.115 430.538, 510.883 429.217, 506.894 429.802 C 504.856 430.101, 504 430.794, 504 432.145 C 504 433.200, 503.325 434.322, 502.500 434.638 C 500.476 435.415, 500.604 437.650, 502.750 439.008 C 504.003 439.802, 504.145 440.265, 503.250 440.641 C 501.247 441.483, 501.809 444, 504 444 C 505.100 444, 506 444.634, 506 445.410 C 506 446.564, 503.288 446.800, 491 446.715 C 479.380 446.634, 476 446.317, 476 445.306 C 476 444.587, 476.949 444, 478.108 444 C 479.858 444, 480.110 443.575, 479.589 441.500 C 479.228 440.058, 479.393 439, 479.981 439 C 481.582 439, 481.171 435.280, 479.500 434.638 C 478.675 434.322, 478 433.201, 478 432.148 C 478 430.074, 475.874 429.224, 472.134 429.803 M 507.306 450.789 C 505.817 451.736, 506.003 467.605, 507.500 467.290 C 508.050 467.174, 508.656 466.049, 508.846 464.790 C 509.036 463.530, 509.666 461.922, 510.247 461.216 C 510.997 460.303, 510.910 459.201, 509.947 457.401 C 508.810 455.277, 508.810 454.736, 509.942 454.036 C 510.684 453.577, 511.015 452.481, 510.677 451.601 C 510.003 449.844, 509.125 449.633, 507.306 450.789 M 454.701 451.632 C 453.220 453.114, 454.042 458.728, 456 460.500 C 458.534 462.793, 458.576 464.318, 456.084 463.527 C 453.516 462.712, 452.726 464.265, 454.520 466.603 C 455.932 468.444, 456.032 468.427, 457.884 466.062 C 459.926 463.453, 459.744 462.045, 456.819 457.820 C 454.982 455.166, 455.780 453.128, 458.096 454.559 C 458.776 454.980, 459.056 454.532, 458.835 453.380 C 458.466 451.463, 455.939 450.395, 454.701 451.632 M 463.667 451.667 C 463.300 452.033, 463 454.174, 463 456.423 C 463 458.673, 462.581 461.973, 462.070 463.757 C 461.330 466.336, 461.432 467, 462.570 467 C 463.356 467, 464 466.550, 464 466 C 464 464.404, 466.153 464.842, 467.685 466.750 C 469.201 468.637, 469.212 469.095, 467.413 455.750 C 466.826 451.392, 465.446 449.888, 463.667 451.667 M 472 454.878 C 472 457.027, 472.640 459.286, 473.436 459.947 C 474.225 460.602, 475.161 462.457, 475.515 464.069 C 475.869 465.681, 476.798 467, 477.579 467 C 478.648 467, 479 465.522, 479 461.031 C 479 456.375, 478.697 455.179, 477.623 455.591 C 476.750 455.926, 476.012 455.183, 475.604 453.560 C 474.561 449.402, 472 450.338, 472 454.878 M 482 452.300 C 482 453.015, 482.425 454.028, 482.945 454.550 C 483.465 455.072, 484.027 458.093, 484.195 461.262 C 484.615 469.194, 486.430 469.012, 486.803 461 C 486.969 457.425, 487.532 454.072, 488.053 453.550 C 489.809 451.789, 489.019 451, 485.500 451 C 483.295 451, 482 451.481, 482 452.300 M 492.597 454.945 C 492.269 457.175, 491.735 460.800, 491.412 463 C 490.851 466.815, 492.004 468.421, 493.530 465.951 C 493.972 465.237, 494.635 465.282, 495.613 466.094 C 497.873 467.970, 498.160 466.746, 497.302 458.878 C 496.688 453.245, 496.113 451.451, 494.847 451.208 C 493.601 450.969, 493.047 451.888, 492.597 454.945 M 515.237 454.184 C 513.920 457.671, 514.565 459.528, 516.125 456.742 C 517.946 453.486, 520 454.683, 520 459 C 520 463.122, 518.573 464.173, 516.200 461.800 C 514.464 460.064, 514.591 464.058, 516.348 466.462 C 517.920 468.611, 520 467.745, 520 464.941 C 520 463.873, 520.450 463, 521 463 C 522.408 463, 522.245 456.926, 520.750 453.707 C 519.071 450.092, 516.704 450.297, 515.237 454.184 M 525.100 462.250 C 525.165 465.705, 525.422 466.711, 525.850 465.191 C 526.652 462.343, 528.388 462.208, 528.820 464.960 C 528.995 466.082, 529.617 467, 530.200 467 C 531.862 467, 530.300 459.693, 528.332 458.253 C 525.482 456.170, 524.996 456.772, 525.100 462.250 M 465 459.559 C 465 460.416, 465.457 460.835, 466.016 460.490 C 466.575 460.144, 466.774 459.443, 466.457 458.931 C 465.600 457.544, 465 457.802, 465 459.559 M 494.079 459.583 C 494.127 460.748, 494.364 460.985, 494.683 460.188 C 494.972 459.466, 494.936 458.603, 494.604 458.271 C 494.272 457.939, 494.036 458.529, 494.079 459.583 M 456.636 470.780 C 456.201 471.485, 455.725 481.810, 455.921 486.309 C 456.023 488.647, 458 487.463, 458 485.063 C 458 484.063, 458.646 482.709, 459.436 482.053 C 461.806 480.086, 462.378 475.226, 460.565 472.459 C 458.933 469.967, 457.513 469.361, 456.636 470.780 M 465.631 470.702 C 464.541 471.792, 464.900 487.180, 466 486.500 C 466.550 486.160, 467 485.009, 467 483.941 C 467 481.096, 468.678 481.575, 469.838 484.750 C 470.777 487.323, 470.847 487.351, 470.921 485.184 C 471.014 482.459, 469.319 478.981, 467.087 477.317 C 465.789 476.350, 465.735 475.896, 466.792 474.826 C 467.855 473.748, 468.243 473.775, 468.987 474.979 C 470.094 476.770, 471.467 475.658, 470.680 473.609 C 469.995 471.825, 466.514 469.820, 465.631 470.702 M 474.474 471.267 C 473.826 473.041, 473.661 475.778, 473.842 481.781 C 473.953 485.512, 474.453 487.237, 475.543 487.655 C 477.824 488.530, 478.601 487.191, 477.155 484.876 C 476.140 483.251, 476.135 482.542, 477.132 481.340 C 478.130 480.139, 478.125 479.429, 477.108 477.801 C 476.195 476.340, 476.142 475.458, 476.918 474.682 C 477.513 474.087, 478 473.063, 478 472.407 C 478 470.733, 475.021 469.769, 474.474 471.267 M 482.626 472.533 C 481.360 475.832, 482.053 478.896, 484.500 480.821 C 485.875 481.903, 487 483.376, 487 484.094 C 487 485.081, 487.282 485.118, 488.154 484.246 C 489.026 483.374, 488.659 482.242, 486.654 479.613 C 483.571 475.571, 483.437 475, 485.573 475 C 487.643 475, 487.012 471.626, 484.864 471.212 C 483.977 471.042, 482.970 471.636, 482.626 472.533 M 491 478.441 C 491 482.814, 491.422 486, 492 486 C 492.571 486, 493 483.020, 493 479.059 C 493 475.241, 492.550 471.840, 492 471.500 C 491.367 471.109, 491 473.656, 491 478.441 M 496 479.500 C 496 487.149, 496.188 488, 497.878 488 C 501.079 488, 502.472 485.162, 502.329 478.932 C 502.170 472.033, 501.664 471, 498.441 471 C 496.044 471, 496 471.155, 496 479.500 M 506 479.500 C 506 487.333, 506.157 488, 508 488 C 510.168 488, 510.654 486.054, 508.918 484.318 C 508.142 483.542, 508.195 482.660, 509.108 481.199 C 510.143 479.541, 510.133 478.865, 509.052 477.562 C 507.937 476.219, 507.987 475.672, 509.364 474.150 C 511.180 472.143, 510.625 471, 507.833 471 C 506.199 471, 506 471.924, 506 479.500 M 513.896 471.437 C 512.913 472.421, 514.572 480.503, 515.711 480.278 C 516.328 480.155, 517.136 481.843, 517.505 484.028 C 518.578 490.380, 521 488.525, 521 481.351 C 521 478.785, 520.134 476.948, 517.715 474.385 C 515.909 472.470, 514.190 471.143, 513.896 471.437 M 524.529 473.250 C 524.948 474.488, 525.489 478.313, 525.731 481.750 C 526.284 489.610, 528 489.968, 528 482.223 C 528 478.767, 528.589 475.604, 529.465 474.354 C 531.247 471.809, 530.585 471, 526.717 471 C 524.098 471, 523.852 471.253, 524.529 473.250 M 457.533 474.947 C 456.653 476.370, 457.775 478, 459.632 478 C 460.508 478, 461.010 477.297, 460.823 476.333 C 460.434 474.324, 458.437 473.484, 457.533 474.947 M 497.458 476.310 C 496.536 479.984, 497.290 483.500, 499 483.500 C 501.117 483.500, 501.592 476.736, 499.592 475.076 C 498.326 474.026, 497.981 474.226, 497.458 476.310 M 419.047 479 C 418.633 479.825, 418.194 512.225, 418.071 551 C 417.819 630.580, 417.145 648.696, 414.002 660.500 C 409.895 675.925, 410.377 704.292, 414.772 705.757 C 416.200 706.233, 416.288 702.945, 415.048 695.500 C 414.524 692.359, 414.588 690.039, 415.220 689.261 C 416.836 687.271, 417.789 688.653, 419.017 694.767 C 420.922 704.246, 423.078 711, 424.200 711 C 424.922 711, 425.032 707.516, 424.544 700 C 423.958 690.951, 424.077 689, 425.217 689 C 426.169 689, 426.997 691.422, 427.866 696.750 C 428.562 701.013, 429.471 705.148, 429.887 705.940 C 431.903 709.782, 432.506 707.060, 432.588 693.750 C 432.636 685.913, 433.161 634.275, 433.753 579 C 434.346 523.725, 434.682 478.350, 434.500 478.168 C 434.318 477.985, 430.936 477.760, 426.985 477.668 C 421.478 477.539, 419.625 477.850, 419.047 479 M 558.250 477.734 L 551 478.088 551 488.560 C 551 494.319, 551.441 514.662, 551.979 533.766 C 554.612 627.144, 555.061 647.803, 555.086 676.750 C 555.115 711.090, 555.945 715.563, 559.026 698 C 559.654 694.425, 560.655 690.487, 561.252 689.250 C 562.037 687.623, 562.030 686.377, 561.226 684.750 C 559.964 682.197, 559.106 674, 560.101 674 C 561.569 674, 562.870 676.755, 563.175 680.513 C 563.398 683.246, 563.972 684.500, 565 684.500 C 566.412 684.500, 567.365 682.242, 569.853 673 C 570.749 669.673, 570.801 669.787, 570.898 675.300 C 571.008 681.531, 569.334 685.952, 565.974 688.306 C 563.613 689.959, 563.459 690.576, 562.490 702.250 C 561.365 715.794, 564.394 713.420, 567.496 698.326 C 570.293 684.712, 574.185 684.642, 572.167 698.242 C 571.580 702.197, 571.291 705.625, 571.526 705.859 C 573.020 707.353, 574.970 702.764, 576.051 695.208 C 577.495 685.111, 576.253 671.244, 572.848 659.473 C 570.788 652.348, 570.220 630.283, 568.759 500.513 C 568.538 480.901, 568.280 477.516, 567 477.453 C 566.175 477.413, 562.237 477.539, 558.250 477.734 M 482 484.800 C 482 485.240, 482.540 486.140, 483.200 486.800 C 484.963 488.563, 486 488.267, 486 486 C 486 484.667, 485.333 484, 484 484 C 482.900 484, 482 484.360, 482 484.800 M 417.421 675.764 C 417.992 682.255, 420.196 687, 422.640 687 C 424.252 687, 426 683.045, 426 679.400 C 426 678.041, 426.727 675.820, 427.615 674.465 C 429.682 671.310, 428.037 671.267, 425.094 674.399 C 423.736 675.846, 422.971 677.733, 423.170 679.149 C 423.388 680.702, 423 681.500, 422.028 681.500 C 421.076 681.500, 420.299 679.998, 419.831 677.256 C 419.432 674.922, 418.603 672.222, 417.989 671.256 C 417.125 669.899, 416.996 670.924, 417.421 675.764 M 511.416 753.136 C 511.139 753.584, 511.154 757.225, 511.450 761.226 C 511.745 765.227, 512.461 798.425, 513.041 835 C 513.620 871.575, 514.288 902.438, 514.525 903.585 C 515.652 909.046, 536.149 909.517, 538.878 904.145 C 539.337 903.240, 539.782 892.825, 539.867 881 C 539.952 869.175, 540.274 855.675, 540.583 851 C 541.096 843.244, 542.889 752.793, 542.541 752.279 C 542.458 752.157, 538.365 752.505, 533.445 753.053 C 528.070 753.651, 521.990 753.703, 518.210 753.184 C 514.751 752.709, 511.693 752.687, 511.416 753.136 M 444.751 754.237 C 444.613 754.642, 444.789 766.792, 445.143 781.237 C 445.497 795.682, 446.295 828.875, 446.917 855 C 447.538 881.125, 448.270 903.219, 448.543 904.098 C 448.815 904.977, 450.176 906.215, 451.566 906.848 C 454.735 908.292, 465.704 908.348, 469.741 906.940 L 472.781 905.881 473.419 883.690 C 474.293 853.332, 475.989 773.535, 475.995 762.500 L 476.001 753.500 460.502 753.500 C 451.977 753.500, 444.890 753.832, 444.751 754.237 M 549.250 755.250 C 549.479 755.938, 550.267 756.500, 551 756.500 C 551.733 756.500, 552.521 755.938, 552.750 755.250 C 552.998 754.506, 552.289 754, 551 754 C 549.711 754, 549.002 754.506, 549.250 755.250 M 549.474 761.950 C 551.383 765.642, 551.412 767.172, 549.566 766.794 C 548.777 766.632, 548.201 766.950, 548.286 767.500 C 548.371 768.050, 549.017 768.368, 549.720 768.206 C 550.504 768.026, 551.048 768.995, 551.125 770.706 C 551.193 772.243, 551.622 771.025, 552.078 768 C 553.078 761.360, 552.509 759, 549.907 759 C 548.060 759, 548.036 759.168, 549.474 761.950 M 547 779.068 C 547 779.581, 547.623 780, 548.383 780 C 549.144 780, 550.007 780.918, 550.300 782.041 C 550.726 783.669, 550.463 783.964, 549 783.500 C 547.537 783.036, 547.274 783.331, 547.700 784.959 C 547.993 786.082, 548.717 787, 549.308 787 C 549.899 787, 549.509 787.643, 548.441 788.429 C 546.590 789.791, 546.584 789.890, 548.317 790.561 C 550.942 791.579, 551.771 790.189, 552.157 784.121 C 552.490 778.897, 552.421 778.734, 549.750 778.440 C 548.237 778.273, 547 778.556, 547 779.068 M 550 796 C 550 796.550, 549.370 797, 548.601 797 C 547.140 797, 545.816 805.768, 547.152 806.594 C 547.745 806.960, 547.674 809.210, 546.889 815 C 546.224 819.899, 547.115 828, 548.319 828 C 549.322 828, 549.644 825.553, 549.666 817.750 C 549.707 803.232, 550.249 797.842, 551.723 797.276 C 553.487 796.599, 553.330 795, 551.500 795 C 550.675 795, 550 795.450, 550 796 M 538.506 908.994 C 536.924 910.742, 535.430 911, 526.904 911 C 521.459 911, 516.844 910.556, 516.500 910 C 516.160 909.450, 515.291 909, 514.568 909 C 513.596 909, 513.295 910.760, 513.412 915.750 L 513.570 922.500 525.035 923.351 C 532.448 923.902, 537.411 923.846, 539.077 923.192 C 541.530 922.230, 541.647 921.839, 541.511 915.108 C 541.432 911.218, 541.133 907.799, 540.845 907.511 C 540.557 907.223, 539.504 907.890, 538.506 908.994 M 446 915.393 C 446 921.212, 446.337 922.915, 447.582 923.393 C 449.638 924.182, 462.041 924.158, 468.750 923.352 L 474 922.721 474 915.826 C 474 909.007, 473.975 908.943, 471.775 910.120 C 468.108 912.083, 452.914 911.828, 449.742 909.750 C 448.273 908.788, 446.830 908, 446.535 908 C 446.241 908, 446 911.327, 446 915.393" stroke="none" fill="black" fill-rule="evenodd"/>
</svg>